<?xml version="1.0" standalone="no"?><!DOCTYPE svg PUBLIC "-//W3C//DTD SVG 1.1//EN" "http://www.w3.org/Graphics/SVG/1.1/DTD/svg11.dtd"><svg t="1720964276776" class="icon" viewBox="0 0 1024 1024" version="1.1" xmlns="http://www.w3.org/2000/svg" p-id="6652" xmlns:xlink="http://www.w3.org/1999/xlink" width="200" height="200"><path d="M431.748157 93.289818h160.533686v48.161906h-160.533686z" fill="#F2F2F2" p-id="6653"></path><path d="M398.962221 12.553975h225.955558v81.595841H398.962221z" fill="#FF1D25" p-id="6654"></path><path d="M736.745561 944.096156V366.189285c0-124.119758-100.619803-224.741561-224.741561-224.741561S287.260439 242.067527 287.260439 366.189285v577.904871c0 35.461931 28.747944 64.211875 64.211875 64.211875 30.991939 0 56.851889-21.955957 62.883877-51.1579 1.545997-7.487985 7.781985-13.053975 15.42997-13.053975h3.903992c7.645985 0 13.883973 5.565989 15.42997 13.053975 6.029988 29.203943 31.893938 51.1579 62.883877 51.1579s56.853889-21.955957 62.883877-51.1579c1.545997-7.487985 7.781985-13.053975 15.42997-13.053975h3.903992c7.645985 0 13.883973 5.565989 15.42997 13.053975 6.029988 29.203943 31.893938 51.1579 62.883877 51.1579 35.459931 0 64.209875-28.747944 64.209875-64.209875z" fill="#534741" p-id="6655"></path><path d="M287.260439 526.726971h449.483122v256.857499H287.260439z" fill="#FF1D25" p-id="6656"></path><path d="M287.262439 366.189285c0-124.119758 100.619803-224.741561 224.741561-224.741561s224.741561 100.619803 224.741561 224.741561" fill="#FFFFFF" p-id="6657"></path><path d="M512.006 142.467722c-13.719973 0-27.089947 1.931996-40.131922 4.285991 104.939795 18.945963 184.607639 110.583784 184.60764 221.469568h80.263843c0-127.623751-100.619803-225.755559-224.739561-225.755559z" fill="#F2F2F2" p-id="6658"></path><path d="M351.470314 590.936846h321.065372v128.417749H351.470314z" fill="#FFFFFF" p-id="6659"></path><path d="M398.962221 640.20675h225.955558v31.381938H398.962221z" fill="" p-id="6660"></path><path d="M591.443845 815.950406h33.473934v31.381939h-33.473934zM639.563751 815.950406h33.473934v31.381939h-33.473934zM545.415935 815.950406h31.381938v31.381939h-31.381938z" fill="#FFFFFF" p-id="6661"></path><path d="M384.318249 384.961248h31.381939v31.381939h-31.381939zM432.438155 430.989158h31.381939v31.381939h-31.381939zM704.421624 399.60522h31.381939v31.381938h-31.381939zM511.94 349.393318h31.381939v33.473934H511.94zM576.797873 430.989158h31.381939v31.381939h-31.381939zM319.460376 464.463093h31.381939v31.381939H319.460376zM350.842315 834.77837h33.473934v31.381938h-33.473934zM384.318249 864.070312h31.381939v31.381939h-31.381939zM497.296029 880.80628h29.289943v31.381938h-29.289943zM704.421624 897.544247h31.381939v31.381939h-31.381939zM656.299718 928.928186h31.381939v31.381938H656.299718zM288.076437 897.544247h31.381939v31.381939h-31.381939z" fill="#C69C6D" p-id="6662"></path><path d="M404.872209 278.597456l-26.091949-17.461966c29.833942-44.563913 78.771846-71.167861 133.16974-71.167861v31.381939c-43.937914 0.002-83.081838 21.401958-107.077791 57.247888z" fill="" p-id="6663"></path><path d="M606.095816 144.941717V108.793788h33.473935V0H384.326249v108.793788h31.381939v37.115927c-84.771834 37.201927-144.135718 121.931762-144.135718 220.28357v577.902871c0 44.059914 35.84593 79.901844 79.901844 79.901844 37.721926 0 70.631862-26.779948 78.251847-63.681876a1.319997 1.319997 0 0 1 0.219999-0.531999h3.581993a1.353997 1.353997 0 0 1 0.222 0.535999C441.368138 997.218052 474.276074 1023.998 511.998 1023.998c37.723926 0 70.633862-26.779948 78.249847-63.677876a1.353997 1.353997 0 0 1 0.222-0.535999h3.583993a1.353997 1.353997 0 0 1 0.221999 0.535999C601.895824 997.218052 634.80376 1023.998 672.525686 1023.998c44.059914 0 79.901844-35.84593 79.901844-79.901844V366.189285c0.008-99.199806-60.383882-184.55764-146.331714-221.247568z m-190.387628-113.559778h14.645971v29.289943h31.381939V31.381939h33.473935v29.289943h31.381939V31.381939h33.473934v29.289943h31.381939V31.381939h16.737967v46.02791h-192.479624V31.381939z m159.00569 77.411849v25.27795a239.867532 239.867532 0 0 0-62.711878-8.313984 239.879531 239.879531 0 0 0-64.911873 8.909983V108.793788h127.623751zM512.004 157.139693c105.309794 0 192.665624 78.279847 206.979596 179.701649h-413.959192c14.313972-101.423802 101.669801-179.701649 206.979596-179.701649zM302.954408 512.582999v-144.359718h418.099184v144.359718h-33.361935v31.381939h33.361935v96.239812h-32.827936V575.238876h-352.439312v64.965874h-32.827936v-96.239812h370.091277v-31.381939H302.954408z m353.887309 94.039816v97.039811H367.168283v-97.039811h289.673434z m15.691969 385.993246c-22.909955 0-42.893916-16.251968-47.517907-38.639924-3.109994-15.055971-15.773969-25.57195-30.79594-25.57195h-3.901992c-15.023971 0-27.685946 10.515979-30.79594 25.57195-4.623991 22.387956-24.607952 38.639925-47.517907 38.639924s-42.893916-16.251968-47.517907-38.639924c-3.107994-15.055971-15.771969-25.57195-30.79394-25.57195h-3.903992c-15.025971 0-27.687946 10.515979-30.79394 25.57195-4.623991 22.387956-24.607952 38.639925-47.517907 38.639924-26.753948 0-48.519905-21.763957-48.519906-48.519905v-144.883717h33.251935v-31.381939h-33.251935v-96.239812h32.827936v63.455876h352.439312v-63.455876h32.827936v96.239812H350.850315v31.381939h370.203277v144.883717c0 26.753948-21.763957 48.519905-48.519906 48.519905z" fill="" p-id="6664"></path></svg>